<svg width="200" height="52" viewBox="0 0 200 52" fill="none" xmlns="http://www.w3.org/2000/svg">
<g clip-path="url(#clip0_231_22371)">
<mask id="mask0_231_22371" style="mask-type:luminance" maskUnits="userSpaceOnUse" x="0" y="0" width="200" height="13">
<path d="M0 0H200V12.9032H0V0Z" fill="white"/>
</mask>
<g mask="url(#mask0_231_22371)">
<path d="M-7.86781e-05 -7.86781e-05V-2.41943H-2.41943V-7.86781e-05H-7.86781e-05ZM200 -7.86781e-05H202.419V-2.41943H200V-7.86781e-05ZM-7.86781e-05 2.41928H200V-2.41943H-7.86781e-05V2.41928ZM197.581 -7.86781e-05V12.9031H202.419V-7.86781e-05H197.581ZM2.41928 12.9031V-7.86781e-05H-2.41943V12.9031H2.41928Z" fill="white"/>
</g>
<path d="M26.4194 22.8903C26.0064 22.1334 25.4387 21.5569 24.7161 21.1613C23.9935 20.7656 23.1505 20.5677 22.1871 20.5677C21.1205 20.5677 20.1742 20.8085 19.3484 21.2903C18.5226 21.7721 17.8774 22.4601 17.4129 23.3548C16.9484 24.2495 16.7161 25.2818 16.7161 26.4516C16.7161 27.656 16.9484 28.7053 17.4129 29.6C17.8947 30.4947 18.5569 31.1827 19.4 31.6645C20.2431 32.1463 21.2237 32.3871 22.3419 32.3871C23.7182 32.3871 24.8452 32.0258 25.7226 31.3032C26.6 30.5634 27.1763 29.5398 27.4516 28.2322H21.2581V25.471H31.0129V28.6193C30.7721 29.8753 30.256 31.0366 29.4645 32.1032C28.6731 33.1698 27.6495 34.0301 26.3935 34.6839C25.1548 35.3205 23.7613 35.6387 22.2129 35.6387C20.4753 35.6387 18.9011 35.2516 17.4903 34.4774C16.0968 33.686 14.9957 32.5935 14.1871 31.2C13.3957 29.8064 13 28.2237 13 26.4516C13 24.6795 13.3957 23.0968 14.1871 21.7032C14.9957 20.2924 16.0968 19.2 17.4903 18.4258C18.9011 17.6343 20.4666 17.2387 22.1871 17.2387C24.2173 17.2387 25.9806 17.7376 27.4774 18.7355C28.9742 19.7161 30.0065 21.1011 30.5742 22.8903H26.4194ZM43.8535 35.6645C42.1676 35.6645 40.6192 35.2689 39.2085 34.4774C37.7977 33.686 36.6795 32.5935 35.8535 31.2C35.0277 29.7892 34.6148 28.1979 34.6148 26.4258C34.6148 24.671 35.0277 23.0968 35.8535 21.7032C36.6795 20.2924 37.7977 19.1914 39.2085 18.4C40.6192 17.6085 42.1676 17.2129 43.8535 17.2129C45.5569 17.2129 47.1053 17.6085 48.4989 18.4C49.9095 19.1914 51.0192 20.2924 51.8279 21.7032C52.6537 23.0968 53.0666 24.671 53.0666 26.4258C53.0666 28.1979 52.6537 29.7892 51.8279 31.2C51.0192 32.5935 49.9095 33.686 48.4989 34.4774C47.0881 35.2689 45.5397 35.6645 43.8535 35.6645ZM43.8535 32.4387C44.9376 32.4387 45.8924 32.1979 46.7182 31.7161C47.544 31.2172 48.1892 30.5118 48.6537 29.6C49.1182 28.6882 49.3503 27.6301 49.3503 26.4258C49.3503 25.2214 49.1182 24.1721 48.6537 23.2774C48.1892 22.3656 47.544 21.6689 46.7182 21.1871C45.8924 20.7053 44.9376 20.4645 43.8535 20.4645C42.7698 20.4645 41.8063 20.7053 40.9634 21.1871C40.1376 21.6689 39.4924 22.3656 39.0279 23.2774C38.5634 24.1721 38.331 25.2214 38.331 26.4258C38.331 27.6301 38.5634 28.6882 39.0279 29.6C39.4924 30.5118 40.1376 31.2172 40.9634 31.7161C41.8063 32.1979 42.7698 32.4387 43.8535 32.4387ZM68.606 32.0516H61.4318L60.2447 35.4839H56.4511L62.9285 17.4451H67.1352L73.6126 35.4839H69.7932L68.606 32.0516ZM67.6255 29.1613L65.0189 21.6258L62.4124 29.1613H67.6255ZM81.4531 32.6193H87.3885V35.4839H77.8402V17.471H81.4531V32.6193ZM104.033 22.8903C103.62 22.1334 103.053 21.5569 102.33 21.1613C101.607 20.7656 100.765 20.5677 99.801 20.5677C98.7344 20.5677 97.7881 20.8085 96.9623 21.2903C96.1365 21.7721 95.4913 22.4601 95.0268 23.3548C94.5623 24.2495 94.33 25.2818 94.33 26.4516C94.33 27.656 94.5623 28.7053 95.0268 29.6C95.5085 30.4947 96.171 31.1827 97.0139 31.6645C97.8569 32.1463 98.8376 32.3871 99.9558 32.3871C101.332 32.3871 102.459 32.0258 103.336 31.3032C104.214 30.5634 104.79 29.5398 105.065 28.2322H98.8719V25.471H108.627V28.6193C108.386 29.8753 107.87 31.0366 107.078 32.1032C106.287 33.1698 105.263 34.0301 104.007 34.6839C102.769 35.3205 101.375 35.6387 99.8268 35.6387C98.0892 35.6387 96.515 35.2516 95.1042 34.4774C93.7106 33.686 92.6097 32.5935 91.801 31.2C91.0097 29.8064 90.6139 28.2237 90.6139 26.4516C90.6139 24.6795 91.0097 23.0968 91.801 21.7032C92.6097 20.2924 93.7106 19.2 95.1042 18.4258C96.515 17.6343 98.0806 17.2387 99.801 17.2387C101.831 17.2387 103.595 17.7376 105.091 18.7355C106.588 19.7161 107.62 21.1011 108.188 22.8903H104.033ZM124.151 32.0516H116.977L115.79 35.4839H111.997L118.474 17.4451H122.68L129.158 35.4839H125.339L124.151 32.0516ZM123.171 29.1613L120.564 21.6258L117.958 29.1613H123.171ZM137.076 32.4387H145.179V35.4839H132.895V32.6968L140.947 20.5161H132.895V17.471H145.179V20.2581L137.076 32.4387ZM158.422 35.6645C156.736 35.6645 155.188 35.2689 153.777 34.4774C152.366 33.686 151.248 32.5935 150.422 31.2C149.596 29.7892 149.183 28.1979 149.183 26.4258C149.183 24.671 149.596 23.0968 150.422 21.7032C151.248 20.2924 152.366 19.1914 153.777 18.4C155.188 17.6085 156.736 17.2129 158.422 17.2129C160.125 17.2129 161.674 17.6085 163.068 18.4C164.477 19.1914 165.587 20.2924 166.397 21.7032C167.223 23.0968 167.635 24.671 167.635 26.4258C167.635 28.1979 167.223 29.7892 166.397 31.2C165.587 32.5935 164.477 33.686 163.068 34.4774C161.656 35.2689 160.108 35.6645 158.422 35.6645ZM158.422 32.4387C159.506 32.4387 160.461 32.1979 161.287 31.7161C162.113 31.2172 162.758 30.5118 163.223 29.6C163.687 28.6882 163.919 27.6301 163.919 26.4258C163.919 25.2214 163.687 24.1721 163.223 23.2774C162.758 22.3656 162.113 21.6689 161.287 21.1871C160.461 20.7053 159.506 20.4645 158.422 20.4645C157.338 20.4645 156.375 20.7053 155.532 21.1871C154.706 21.6689 154.061 22.3656 153.596 23.2774C153.132 24.1721 152.9 25.2214 152.9 26.4258C152.9 27.6301 153.132 28.6882 153.596 29.6C154.061 30.5118 154.706 31.2172 155.532 31.7161C156.375 32.1979 157.338 32.4387 158.422 32.4387ZM181.419 35.4839L177.445 28.4645H175.742V35.4839H172.129V17.471H178.89C180.284 17.471 181.471 17.7205 182.452 18.2193C183.432 18.7011 184.165 19.3634 184.645 20.2064C185.145 21.0322 185.394 21.9613 185.394 22.9935C185.394 24.1806 185.05 25.256 184.361 26.2193C183.674 27.1656 182.65 27.8193 181.29 28.1806L185.6 35.4839H181.419ZM175.742 25.7548H178.761C179.742 25.7548 180.474 25.5226 180.955 25.0581C181.437 24.5763 181.677 23.914 181.677 23.071C181.677 22.2451 181.437 21.6085 180.955 21.1613C180.474 20.6968 179.742 20.4645 178.761 20.4645H175.742V25.7548Z" fill="white"/>
<mask id="mask1_231_22371" style="mask-type:luminance" maskUnits="userSpaceOnUse" x="0" y="38" width="200" height="14">
<path d="M200 51.6127H0V38.7095H200V51.6127Z" fill="white"/>
</mask>
<g mask="url(#mask1_231_22371)">
<path d="M200 51.6127V54.0321H202.419V51.6127H200ZM-7.86781e-05 51.6127H-2.41943V54.0321H-7.86781e-05V51.6127ZM200 49.1933H-7.86781e-05V54.0321H200V49.1933ZM2.41928 51.6127V38.7095H-2.41943V51.6127H2.41928ZM197.581 38.7095V51.6127H202.419V38.7095H197.581Z" fill="white"/>
</g>
</g>
<defs>
<clipPath id="clip0_231_22371">
<rect width="200" height="51.6129" fill="white"/>
</clipPath>
</defs>
</svg>
